<svg width="96" height="96" viewBox="0 0 96 96" fill="none" xmlns="http://www.w3.org/2000/svg">
  <rect width="96" height="96" rx="24" fill="#0EA5A4"/>
  <path d="M48 72C33.4315 72 24 60.7846 24 48C24 35.2154 33.4315 24 48 24C62.5685 24 72 35.2154 72 48C72 60.7846 62.5685 72 48 72ZM48 64C57.9411 64 64 56.6274 64 48C64 39.3726 57.9411 32 48 32C38.0589 32 32 39.3726 32 48C32 56.6274 38.0589 64 48 64Z" fill="#0F172A"/>
  <path d="M38 44C38 39.5817 41.5817 36 46 36C50.4183 36 54 39.5817 54 44C54 46.2091 52.2091 48 50 48H46V60H38V44Z" fill="white"/>
</svg>
